<?xml version="1.0" encoding="utf-8"?><svg xmlns="http://www.w3.org/2000/svg" xmlns:xlink="http://www.w3.org/1999/xlink"><symbol viewBox="0 0 512 512" id="backup" xmlns="http://www.w3.org/2000/svg"><path d="M498.966 339.946c-7.197 0-13.034 5.837-13.034 13.034v49.804c0 28.747-23.388 52.135-52.135 52.135H78.203c-28.747 0-52.135-23.388-52.135-52.135V352.98c0-7.197-5.835-13.034-13.034-13.034C5.835 339.946 0 345.782 0 352.98v49.804c0 43.121 35.082 78.203 78.203 78.203h355.594c43.121 0 78.203-35.082 78.203-78.203V352.98c0-7.198-5.835-13.034-13.034-13.034z"/><path d="M419.833 391.3H92.167c-7.197 0-13.034 5.837-13.034 13.034s5.835 13.034 13.034 13.034h327.665c7.199 0 13.034-5.835 13.034-13.034 0-7.197-5.835-13.034-13.033-13.034zm-31.914-183.37c-4.795-5.367-13.034-5.834-18.404-1.038l-100.482 89.765V44.048c0-7.197-5.835-13.034-13.034-13.034-7.197 0-13.034 5.835-13.034 13.034v252.609l-100.482-89.764c-5.367-4.796-13.607-4.328-18.404 1.038-4.794 5.369-4.331 13.609 1.037 18.404l109.174 97.527a32.496 32.496 0 0 0 21.708 8.292 32.517 32.517 0 0 0 21.708-8.289l109.174-97.53c5.37-4.798 5.834-13.038 1.039-18.405z"/></symbol><symbol viewBox="0 0 478.2 478.2" id="confirm" xmlns="http://www.w3.org/2000/svg"><path d="M457.575 325.1c9.8-12.5 14.5-25.9 13.9-39.7-.6-15.2-7.4-27.1-13-34.4 6.5-16.2 9-41.7-12.7-61.5-15.9-14.5-42.9-21-80.3-19.2-26.3 1.2-48.3 6.1-49.2 6.3h-.1c-5 .9-10.3 2-15.7 3.2-.4-6.4.7-22.3 12.5-58.1 14-42.6 13.2-75.2-2.6-97-16.6-22.9-43.1-24.7-50.9-24.7-7.5 0-14.4 3.1-19.3 8.8-11.1 12.9-9.8 36.7-8.4 47.7-13.2 35.4-50.2 122.2-81.5 146.3-.6.4-1.1.9-1.6 1.4-9.2 9.7-15.4 20.2-19.6 29.4-5.9-3.2-12.6-5-19.8-5h-61c-23 0-41.6 18.7-41.6 41.6v162.5c0 23 18.7 41.6 41.6 41.6h61c8.9 0 17.2-2.8 24-7.6l23.5 2.8c3.6.5 67.6 8.6 133.3 7.3 11.9.9 23.1 1.4 33.5 1.4 17.9 0 33.5-1.4 46.5-4.2 30.6-6.5 51.5-19.5 62.1-38.6 8.1-14.6 8.1-29.1 6.8-38.3 19.9-18 23.4-37.9 22.7-51.9-.4-8.1-2.2-15-4.1-20.1zm-409.3 122.2c-8.1 0-14.6-6.6-14.6-14.6V270.1c0-8.1 6.6-14.6 14.6-14.6h61c8.1 0 14.6 6.6 14.6 14.6v162.5c0 8.1-6.6 14.6-14.6 14.6h-61v.1zm383.7-133.9c-4.2 4.4-5 11.1-1.8 16.3 0 .1 4.1 7.1 4.6 16.7.7 13.1-5.6 24.7-18.8 34.6-4.7 3.6-6.6 9.8-4.6 15.4 0 .1 4.3 13.3-2.7 25.8-6.7 12-21.6 20.6-44.2 25.4-18.1 3.9-42.7 4.6-72.9 2.2h-1.4c-64.3 1.4-129.3-7-130-7.1h-.1l-10.1-1.2c.6-2.8.9-5.8.9-8.8V270.1c0-4.3-.7-8.5-1.9-12.4 1.8-6.7 6.8-21.6 18.6-34.3 44.9-35.6 88.8-155.7 90.7-160.9.8-2.1 1-4.4.6-6.7-1.7-11.2-1.1-24.9 1.3-29 5.3.1 19.6 1.6 28.2 13.5 10.2 14.1 9.8 39.3-1.2 72.7-16.8 50.9-18.2 77.7-4.9 89.5 6.6 5.9 15.4 6.2 21.8 3.9 6.1-1.4 11.9-2.6 17.4-3.5.4-.1.9-.2 1.3-.3 30.7-6.7 85.7-10.8 104.8 6.6 16.2 14.8 4.7 34.4 3.4 36.5-3.7 5.6-2.6 12.9 2.4 17.4.1.1 10.6 10 11.1 23.3.4 8.9-3.8 18-12.5 27z"/></symbol><symbol viewBox="0 0 612 612" id="control" xmlns="http://www.w3.org/2000/svg"><path d="M556.363 500.728s55.637 0 55.637-55.637V55.636C612 0 556.363 0 556.363 0H55.636S0 0 0 55.636v389.455c0 55.637 55.636 55.637 55.636 55.637h161.346v55.636L166.909 612h278.182l-61.2-55.637v-55.636h172.472zM27.818 56.749c0-28.931 27.818-28.931 27.818-28.931h500.727s27.818 0 27.818 28.931v304.888H27.818V56.749zm200.097 524.345l16.691-24.73v-55.636h111.467v55.636l23.006 24.73H227.915zM55.636 472.909s-27.818 0-27.818-28.931v-54.524h556.363v54.524c0 28.931-27.818 28.931-27.818 28.931H55.636z"/></symbol><symbol viewBox="0 0 60 60" id="count-comments" xmlns="http://www.w3.org/2000/svg"><path d="M10 25.465h13a1 1 0 1 0 0-2H10a1 1 0 1 0 0 2zm26 4H10a1 1 0 1 0 0 2h26a1 1 0 1 0 0-2zm0 6H10a1 1 0 1 0 0 2h26a1 1 0 1 0 0-2z"/><path d="M54.072 2.535l-34.142-.07c-3.27 0-5.93 2.66-5.93 5.93v5.124l-8.07.017c-3.27 0-5.93 2.66-5.93 5.93v21.141c0 3.27 2.66 5.929 5.93 5.929H12v10a1 1 0 0 0 1.74.673l9.704-10.675 16.626-.068c3.27 0 5.93-2.66 5.93-5.929v-.113l5.26 5.786a1.002 1.002 0 0 0 1.74-.673v-10h1.07c3.27 0 5.93-2.66 5.93-5.929V8.465a5.937 5.937 0 0 0-5.928-5.93zM44 40.536a3.934 3.934 0 0 1-3.934 3.929l-17.07.07a1 1 0 0 0-.736.327L14 53.949v-8.414a1 1 0 0 0-1-1H5.93A3.934 3.934 0 0 1 2 40.606V19.465a3.935 3.935 0 0 1 3.932-3.93L15 15.516h.002l25.068-.052a3.934 3.934 0 0 1 3.93 3.93v21.142zm14-10.93a3.934 3.934 0 0 1-3.93 3.929H52a1 1 0 0 0-1 1v8.414l-5-5.5V19.395c0-3.27-2.66-5.93-5.932-5.93L16 13.514v-5.12a3.934 3.934 0 0 1 3.928-3.93l34.141.07h.002a3.934 3.934 0 0 1 3.93 3.93v21.142z"/></symbol><symbol viewBox="0 0 512 512" id="count-unmoderated" xmlns="http://www.w3.org/2000/svg"><path d="M494.353 46.611l-30.766-30.766c-20.064-20.064-53.872-21.231-75.366-2.6l-54.071 46.87a8.708 8.708 0 0 0-1.758 2.091l-52.635 87.676-33.796 11.265a8.684 8.684 0 0 0-3.395 14.38l92.105 92.104a8.688 8.688 0 0 0 8.136 2.311 8.684 8.684 0 0 0 6.244-5.706l11.268-33.807 88.965-53.72a8.691 8.691 0 0 0 2.085-1.761l45.76-53.029c18.527-21.468 17.28-55.251-2.776-75.308zm-10.372 63.961l-44.857 51.982-90.52 54.659a8.682 8.682 0 0 0-3.749 4.689l-7.837 23.512-20.755-20.755-.011-.013-30.703-30.701-.01-.008-20.757-20.757 23.512-7.837a8.686 8.686 0 0 0 4.699-3.768l53.578-89.243 53.026-45.964c14.753-12.79 37.949-12.002 51.708 1.759l30.767 30.766c13.766 13.764 14.622 36.948 1.909 51.679z"/><path d="M469.736 348.922c-25.496-25.495-63.021-34.357-97.02-23.335L188.164 141.035c11.021-33.999 2.159-71.525-23.335-97.021-26.86-26.858-67.071-35.26-102.445-21.396a8.685 8.685 0 0 0-2.972 14.225l55.241 55.24-36.843 36.842-55.24-55.241a8.68 8.68 0 0 0-14.225 2.972c-13.862 35.372-5.463 75.584 21.396 102.445 25.496 25.495 63.021 34.359 97.02 23.335l69.008 69.008-85.937 85.939-54.658 30.56a8.686 8.686 0 0 0-3.529 3.696l-24.561 49.122a8.685 8.685 0 0 0 1.626 10.025l30.701 30.702a8.681 8.681 0 0 0 10.025 1.626l49.122-24.561a8.686 8.686 0 0 0 3.696-3.529l30.56-54.659 85.939-85.936 72.561 72.561c-11.022 33.999-2.159 71.525 23.336 97.021 18.263 18.262 42.696 27.99 67.586 27.99a95.501 95.501 0 0 0 34.858-6.593 8.685 8.685 0 0 0 2.972-14.225l-55.241-55.241 36.842-36.841 55.24 55.24a8.68 8.68 0 0 0 14.225-2.972c13.863-35.374 5.464-75.586-21.396-102.447zM139.68 388.935a8.669 8.669 0 0 0-1.438 1.903l-29.843 53.376-41.132 20.566-21.85-21.85 20.565-41.133 53.375-29.842a8.669 8.669 0 0 0 1.903-1.438l86.789-86.79 18.421 18.421-86.79 86.787zm339.18 42.795l-51.052-51.052a8.686 8.686 0 0 0-12.281 0L366.405 429.8a8.686 8.686 0 0 0 0 12.282l51.053 51.053c-25.314 5.03-51.861-2.739-70.527-21.405-21.977-21.977-28.85-54.882-17.507-83.827a8.686 8.686 0 0 0-1.944-9.309L135.157 186.272a8.687 8.687 0 0 0-9.309-1.944c-28.944 11.344-61.849 4.469-83.827-17.506-18.667-18.668-26.437-45.216-21.404-70.528l51.052 51.053a8.686 8.686 0 0 0 12.281 0l49.122-49.122a8.685 8.685 0 0 0 0-12.281L82.02 34.891a78.17 78.17 0 0 1 70.527 21.405c21.977 21.977 28.85 54.882 17.507 83.827a8.686 8.686 0 0 0 1.944 9.309l192.321 192.32a8.687 8.687 0 0 0 9.309 1.944c28.946-11.34 61.849-4.47 83.827 17.506 18.669 18.668 26.437 45.217 21.405 70.528z"/></symbol><symbol viewBox="0 0 380.65 380.65" id="count-users" xmlns="http://www.w3.org/2000/svg"><path d="M310.805 268.65h-44.84a53.568 53.568 0 0 0-26.44 6.96 54.529 54.529 0 0 0-17.4 15.64 53.75 53.75 0 0 0-9.28-.8h-44.88a53.651 53.651 0 0 0-9.28.8 54.484 54.484 0 0 0-17.4-15.64 53.568 53.568 0 0 0-26.44-6.96h-44.84c-29.796.066-53.934 24.204-54 54v30.44a5.8 5.8 0 0 0 5.8 5.76h92v16a5.8 5.8 0 0 0 5.8 5.8h141.44a5.8 5.8 0 0 0 5.8-5.8v-16h92a5.8 5.8 0 0 0 5.8-5.8v-30.4c-.066-29.734-24.107-53.846-53.84-54zm-196.4 70.6v8h-86.8v-24.6c.066-23.39 19.01-42.334 42.4-42.4h44.84a41.998 41.998 0 0 1 20.72 5.44 43.083 43.083 0 0 1 11.24 9.16 54.281 54.281 0 0 0-32.4 44.4zm140.72 5.2v24.64h-129.56v-33.72l.24-.96.4-1.44.28-.96c5.746-17.415 21.982-29.206 40.32-29.28l1.16-.64h44.88c21.297.078 39.258 15.885 42.04 37 0 .88 0 1.76.24 2.64v2.72zm98.08 2.84h-86.4v-16.8l-.28-1v-1.96l-.56-1.56a54.44 54.44 0 0 0-29.44-30.84 43.081 43.081 0 0 1 8.68-9.44 41.998 41.998 0 0 1 20.72-5.44h44.88c23.389.066 42.334 19.01 42.4 42.4v24.64z"/><circle cx="190.645" cy="77.85" r="6.56"/><path d="M121.285 189.17a40.682 40.682 0 0 0-28.88-12c-22.555-.02-40.856 18.248-40.876 40.804-.02 22.555 18.248 40.856 40.804 40.876s40.856-18.248 40.876-40.804a40.841 40.841 0 0 0-11.924-28.876zm-8.2 49.48c-11.417 11.421-29.93 11.425-41.352.008-11.421-11.417-11.425-29.93-.008-41.352 11.417-11.421 29.93-11.425 41.352-.008a29.24 29.24 0 0 1 8.568 20.672 29.157 29.157 0 0 1-8.56 20.68z"/><circle cx="233.045" cy="77.85" r="6.56"/><path d="M258.725 22.73A109.64 109.64 0 0 0 190.405.01a109.642 109.642 0 0 0-68.32 22.72c-17.92 14.32-29 34.24-29 56.28a66.478 66.478 0 0 0 8.28 32 80.804 80.804 0 0 0 20.36 24l-4.6 30.6a5.76 5.76 0 0 0 8.6 5.84l31.28-18.24a114.317 114.317 0 0 0 15.12 3.4 120.053 120.053 0 0 0 18.32 1.4 109.64 109.64 0 0 0 68.32-22.72c17.88-14.36 28.96-34.24 28.96-56.28s-11.08-41.96-29-56.28zm-7.2 103.6a98.038 98.038 0 0 1-61.12 20c-5.53.008-11.053-.406-16.52-1.24a102.766 102.766 0 0 1-16-3.72 5.76 5.76 0 0 0-4.64.52l-22.84 13.48 3.32-22a5.799 5.799 0 0 0-2.36-5.56 70.206 70.206 0 0 1-20-22.4 54.964 54.964 0 0 1-6.8-26.4c0-18.4 9.4-35.12 24.6-47.28a98.038 98.038 0 0 1 61.12-20 98.038 98.038 0 0 1 61.12 20c15.2 12 24.6 28.88 24.6 47.28 0 18.4-9.28 35.12-24.48 47.32zm36.913 50.8c-22.555-.02-40.856 18.248-40.876 40.804a40.835 40.835 0 0 0 11.924 28.876 40.682 40.682 0 0 0 28.88 12c22.555.02 40.856-18.248 40.876-40.804s-18.249-40.856-40.804-40.876zm20.647 61.503c-11.417 11.421-29.93 11.425-41.352.008a29.24 29.24 0 0 1-8.568-20.672 29.157 29.157 0 0 1 8.56-20.68c11.417-11.421 29.93-11.425 41.352-.008 11.421 11.417 11.425 29.931.008 41.352z"/><circle cx="148.245" cy="77.85" r="6.56"/><path d="M219.225 210.83a40.8 40.8 0 0 0-28.82-11.9 40.682 40.682 0 0 0-28.88 12c-15.906 15.961-15.861 41.794.1 57.7 15.961 15.906 41.794 15.861 57.7-.1s15.861-41.794-.1-57.7zm-28.828 58.212c-16.149-.005-29.236-13.1-29.232-29.248s13.1-29.236 29.248-29.232a29.24 29.24 0 0 1 20.672 8.568 29.157 29.157 0 0 1 8.56 20.68c-.005 16.149-13.1 29.236-29.248 29.232z"/></symbol><symbol viewBox="0 0 303.566 224.204" id="east" xmlns="http://www.w3.org/2000/svg"><path d="M232.4 135.27s3.855-2.652 1.444-8.438c0-.001 1.69-5.546-3.855-9.405-5.547-3.856-13.985-6.748-13.985-6.748.001-.001 11.574-12.055 15.669-14.948 4.102-2.896 7.957-7.718 11.334-9.644 3.375-1.931 13.501-8.681 18.083-10.607 4.581-1.933 7.715-6.27 7.715-6.27.001-.001 32.068-8.894 32.068-37.13 0-5.304-2.172-3.375-2.172-3.375.001-.001 6.267-10.366 4.584-19.288-1.69-8.922-3.135-7.233-3.135-7.233 0-.001-.486-5.062-5.307.242 0-.001-9.162-5.787-14.463 3.374-5.306 9.161-10.129 13.743-10.129 13.743s6.752-16.395 4.823-18.806c-1.93-2.412-13.019 5.063-14.224 8.439 0-.001-7.954-1.688-8.439 4.581 0-.001-8.439 2.892-8.439 6.026 0 0-14.706-.964-14.706 10.85.001-.001-13.984-1.687-14.709 7.234.001-.001-10.122 1.446-11.574 8.197.001 0-8.222-.312-10.607 5.788.001-.001-11.331.239-11.813 6.268 0-.001-8.921 2.169-9.159 8.437 0 0-8.439 1.93-8.439 8.439.001-.002-3.62 1.206-3.373 5.304 0 0-11.093 3.135-13.746 5.788.001 0 4.822 3.135.724 5.062-4.097 1.928-8.199 5.546-8.439 8.681-.239 3.132-4.341 3.856-3.617 5.546.725 1.687.243.239-5.545 0-5.785-.243-29.896-5.546-36.887-7.718-6.99-2.17-7.715-2.65-8.92-4.823-1.206-2.169-4.099-.72-4.099 1.449.001-.002-6.99-6.752-6.99-11.813 0-5.065-3.378-5.304-3.378-1.206.001 4.098 5.789 9.883 3.132 10.125-2.65.239-8.675-4.822-10.365-12.055-1.687-7.235-3.616-24.111-6.027-24.351-2.411-.242-6.509 10.609 3.377 24.832 4.341 6.27 1.93 6.991-4.34.243-6.27-6.753-17.359-34.719-20.494-35.682-3.131-.966-3.617 12.537.724 17.357 4.341 4.822 15.43 16.153 11.813 18.564-3.616 2.411-12.055-7.715-17.119-15.187-5.062-7.477-12.534-16.636-12.534-16.636 0-.001-1.929 6.509 3.855 12.778 5.789 6.269 13.261 12.055 11.335 15.19-1.932 3.134-8.442-2.169-13.745-6.751C12.999 65.11.947 56.671.947 56.671s5.3 8.197.72 8.197c-4.582 0 1.688.725 2.411 3.135.725 2.409 2.411 6.27 0 6.509-2.41.238-2.168 2.893-2.168 2.893 0-.001 3.616 3.859 1.206 6.751-2.411 2.892 0 2.892 2.169 4.098 2.168 1.206.481 3.617 2.168 4.823 1.691 1.204 4.341 2.653 6.509 2.653 2.172 0 0 1.927 3.135 4.338 3.135 2.41 6.509 1.447 6.509 1.447 0-.001 0 4.58 3.135 4.58 3.135-.001 7.715.242 7.715.242 0-.001.481 7.715 8.199 8.439l7.715.721c.001 0 5.785 5.064 9.163 3.859 3.374-1.207 1.444 1.687 5.543 2.411s9.16 2.892 11.331 4.341c2.169 1.444 6.027 5.785 9.405 5.304 3.371-.484 4.822-2.653 6.506-1.93 1.691.723 2.896 1.206 5.068.963 2.166-.24.96 1.93 6.99 1.449 6.025-.484 9.884-.243 14.463-1.206 4.58-.965 1.929 2.168-2.411 3.134-4.341.962-25.074 16.154-30.86 20.253-5.788 4.096-28.693 16.395-38.816 15.672-6.994-.244-6.752.724-6.752.724l2.412.963-2.17 1.93 3.856.482-.721 2.892 2.169-1.206-.724 2.169s14.709-4.579 20.494-7.953 19.046-11.813 23.387-11.813c4.341-.001 6.024-2.653 6.024-2.653 0-.002-5.061 8.196-9.401 9.886-4.341 1.686-13.742 9.402-13.742 10.607s3.374 1.688 8.919 1.206c5.547-.485 9.405-4.098 11.813-3.135 2.411.963 3.863-.243 2.896 4.098-.963 4.341-2.168 5.304-2.168 5.304 0-.001 4.58-2.892 4.819-1.687.243 1.206-.478 4.098.724 5.064 1.206.962 4.584-2.172 8.439-1.69 3.856.484.239.242 4.341 2.653 4.099 2.41-.485 3.856 1.687 4.341 2.169.48 3.859-.724 4.822-.485.964.241 4.822-1.206 4.58 0-.242 1.205-2.651 3.135-4.823 4.341-2.168 1.206-6.027 4.101-4.579 9.886 2.654 2.167 2.41.482 2.41.482.001-.002.243-6.509 2.169-6.509 1.93-.001 3.617 2.892.967 4.34-2.652 1.444-6.751 4.099-6.751 5.544 0 1.447-1.688.967-1.688 3.616 0 2.652-1.929 7.233 1.206 7.233 0-.001.966 2.896-.724 2.411-1.687-.482-3.378-2.411-3.378-2.411 0-.001 3.135 5.789 6.752 3.135 3.617-2.655 10.129-9.884 11.574-11.574 1.445-1.687 1.445-5.061 1.445-5.061s6.512-1.688 7.957-6.027c1.449-4.341 1.69-7.473 1.69-10.85 0-3.375-.484-8.438 1.445-9.162 1.93-.721 7.233-.964 15.43-10.365 23.148-10.368 37.132-16.154 40.988-20.736 12.536-5.787 25.798-9.883 29.172-13.742 3.375-3.859 9.887-6.27 8.682-.725z"/></symbol><symbol viewBox="0 0 129 129" id="edit" xmlns="http://www.w3.org/2000/svg"><path d="M119.2 114.3H9.8c-2.3 0-4.1 1.9-4.1 4.1s1.9 4.1 4.1 4.1h109.5c2.3 0 4.1-1.9 4.1-4.1s-1.9-4.1-4.2-4.1zM5.7 78l-.1 19.5c0 1.1.4 2.2 1.2 3 .8.8 1.8 1.2 2.9 1.2l19.4-.1c1.1 0 2.1-.4 2.9-1.2l67-67c1.6-1.6 1.6-4.2 0-5.9L79.8 8.1c-1.6-1.6-4.2-1.6-5.9 0L60.5 21.6 6.9 75.1c-.7.8-1.2 1.8-1.2 2.9zm71.2-61.1l13.5 13.5-7.6 7.6-13.5-13.5 7.6-7.6zM14 79.8l49.4-49.4 13.5 13.5-49.4 49.3-13.6.1.1-13.5z"/></symbol><symbol viewBox="0 0 386.427 386.427" id="email-settings" xmlns="http://www.w3.org/2000/svg"><path d="M93.951 229.222c-18.882 0-34.244 15.361-34.244 34.243s15.362 34.243 34.244 34.243c18.881 0 34.243-15.361 34.243-34.243s-15.361-34.243-34.243-34.243zm0 50.485c-8.957 0-16.244-7.287-16.244-16.243s7.287-16.243 16.244-16.243c8.956 0 16.243 7.287 16.243 16.243 0 8.957-7.287 16.243-16.243 16.243zM377.329 22.248H18.535c-4.971 0-9.108 4.323-9.108 9.293V167.5c0 4.971 4.029 9 9 9s9-4.029 9-9V80.373l162.962 95.382a9.143 9.143 0 0 0 9.06.064l168.978-95.701v206.13H216.563c-4.971 0-9 4.029-9 9s4.029 9 9 9H377.33c4.971 0 9.098-4.521 9.098-9.491V31.542c-.001-4.971-4.128-9.294-9.099-9.294zm-8.902 37.182l-173.368 98.173L27.427 59.515V40.248h341V59.43zM182.258 281.449l-11.629-8.425a78.097 78.097 0 0 0 .018-18.953l11.633-8.429c2.973-1.937 7.028-6.501 5.085-16.565-.93-4.817-3.157-10.44-6.271-15.836-8.634-14.955-19.098-21.498-27.449-17.238l-13.08 5.845a76.491 76.491 0 0 0-16.487-9.547l-1.472-14.172c-.445-9.393-11.338-15.199-28.655-15.199-17.271 0-28.169 5.79-28.654 15.155l-1.474 14.217a76.474 76.474 0 0 0-16.488 9.547l-13.06-5.835c-3.164-1.606-9.145-2.837-16.889 3.878-3.708 3.214-7.464 7.956-10.578 13.349-8.641 14.96-9.074 27.297-1.197 32.398l11.642 8.435a78.056 78.056 0 0 0 .018 18.948l-11.655 8.443c-7.883 5.099-7.451 17.437 1.191 32.401 3.115 5.395 6.872 10.136 10.579 13.35 7.744 6.714 13.726 5.484 16.889 3.877l13.194-5.895a76.55 76.55 0 0 0 16.336 9.439l1.492 14.375c.479 9.371 11.378 15.166 28.655 15.166 17.317 0 28.21-5.807 28.655-15.201l1.488-14.34a76.547 76.547 0 0 0 16.337-9.438l13.206 5.901c8.352 4.265 18.819-2.275 27.457-17.235 8.657-14.998 9.076-27.335 1.163-32.416zm-30.192-29.659a59.746 59.746 0 0 1 1.15 11.684c0 3.974-.395 7.947-1.174 11.809a9 9 0 0 0 3.542 9.067l14.121 10.23c-.412 2.108-1.613 5.805-4.199 10.286-2.587 4.481-5.189 7.37-6.808 8.78l-15.982-7.142a9 9 0 0 0-9.621 1.463c-5.959 5.249-12.771 9.184-20.248 11.697a9 9 0 0 0-6.084 7.602l-1.807 17.407c-2.031.697-5.833 1.505-11.005 1.505-5.175 0-8.978-.809-11.009-1.506l-1.806-17.406a9.001 9.001 0 0 0-6.084-7.602c-7.474-2.512-14.287-6.448-20.249-11.698a9.002 9.002 0 0 0-9.619-1.463l-15.982 7.141c-1.619-1.411-4.22-4.299-6.807-8.78-2.587-4.48-3.789-8.178-4.2-10.286l14.123-10.232a9 9 0 0 0 3.542-9.07 59.743 59.743 0 0 1-1.175-11.804c0-3.931.387-7.861 1.151-11.682a9.001 9.001 0 0 0-3.545-9.052l-14.095-10.212c.412-2.107 1.613-5.805 4.201-10.286 2.586-4.48 5.188-7.369 6.806-8.779l15.861 7.086a9.006 9.006 0 0 0 9.635-1.477c5.989-5.298 12.842-9.267 20.371-11.795a9 9 0 0 0 6.086-7.604l1.788-17.238c2.031-.697 5.833-1.506 11.009-1.506 5.173 0 8.974.808 11.005 1.505l1.791 17.24a9 9 0 0 0 6.086 7.602c7.527 2.528 14.379 6.496 20.368 11.794a9.002 9.002 0 0 0 9.636 1.477l15.86-7.087c1.619 1.41 4.22 4.298 6.808 8.779 2.586 4.481 3.787 8.178 4.199 10.286l-14.094 10.212a9.003 9.003 0 0 0-3.546 9.055z"/></symbol><symbol viewBox="0 0 1000 1000" id="logo" xmlns="http://www.w3.org/2000/svg"><path d="M500 916c-114.872 0-218.872-46.564-294.154-121.846C130.564 718.872 84 614.872 84 500c0-114.873 46.564-218.872 121.846-294.154C281.128 130.563 385.128 84 500 84c114.872 0 218.872 46.564 294.154 121.846C869.436 281.128 916 385.128 916 500c0 114.872-46.564 218.872-121.846 294.154C718.872 869.436 614.872 916 500 916zM241.07 758.93C307.333 825.194 398.88 866.179 500 866.179s192.667-40.985 258.93-107.249C825.194 692.667 866.179 601.12 866.179 500c0-101.121-40.985-192.667-107.249-258.93C692.667 174.806 601.12 133.821 500 133.821S307.333 174.806 241.07 241.07C174.806 307.333 133.821 398.879 133.821 500c0 101.12 40.985 192.667 107.249 258.93z"/><circle class="jfil1" cx="500" cy="354.529" r="105.057"/><circle class="jfil1" cx="629.846" cy="583.769" r="105.057"/><circle class="jfil1" cx="370.154" cy="583.769" r="105.057"/></symbol><symbol viewBox="0 0 24 24" id="logout" xmlns="http://www.w3.org/2000/svg"><path d="M17.5 13a.5.5 0 0 0-.5.5v5c0 .827-.673 1.5-1.5 1.5H11V4.594c0-.865-.514-1.644-1.309-1.984L5.935 1H15.5c.827 0 1.5.673 1.5 1.5v5a.5.5 0 0 0 1 0v-5C18 1.122 16.878 0 15.5 0h-12c-.04 0-.076.014-.114.023C3.311.015 3.236 0 3.159 0 1.969 0 1 .969 1 2.159v17.247c0 .865.514 1.644 1.309 1.984l5.68 2.435A2.162 2.162 0 0 0 11 21.841V21h4.5c1.378 0 2.5-1.122 2.5-2.5v-5a.5.5 0 0 0-.5-.5zM10 21.841a1.16 1.16 0 0 1-1.616 1.066l-5.681-2.435A1.16 1.16 0 0 1 2 19.406V2.159a1.16 1.16 0 0 1 1.616-1.065l5.681 2.434c.427.183.703.602.703 1.066v17.247zM8.5 11a.5.5 0 0 0-.5.5v2a.5.5 0 0 0 1 0v-2a.5.5 0 0 0-.5-.5zm14.473-.632c-.005-.018-.004-.038-.011-.056a.483.483 0 0 0-.115-.17l-2.994-2.994a.5.5 0 0 0-.707.707L21.291 10H12.5a.5.5 0 0 0 0 1h8.793l-2.147 2.147a.5.5 0 0 0 .707.708l3-3c.014-.014.019-.032.031-.046.029-.036.059-.073.077-.117.018-.043.022-.089.027-.134.003-.02.012-.038.012-.058 0-.047-.015-.089-.027-.132z"/></symbol><symbol viewBox="0 -1 401.523 401" id="panel" xmlns="http://www.w3.org/2000/svg"><path d="M370.59 250.973c-5.524 0-10 4.476-10 10v88.789c-.02 16.562-13.438 29.984-30 30H50c-16.563-.016-29.98-13.438-30-30V89.172c.02-16.559 13.438-29.98 30-30h88.79c5.523 0 10-4.477 10-10 0-5.52-4.477-10-10-10H50c-27.602.031-49.969 22.398-50 50v260.594c.031 27.601 22.398 49.968 50 50h280.59c27.601-.032 49.969-22.399 50-50v-88.793c0-5.524-4.477-10-10-10zm0 0"/><path d="M376.629 13.441c-17.574-17.574-46.067-17.574-63.64 0L134.581 191.848a9.997 9.997 0 0 0-2.566 4.402l-23.461 84.7a9.997 9.997 0 0 0 12.304 12.308l84.7-23.465a9.997 9.997 0 0 0 4.402-2.566l178.402-178.41c17.547-17.587 17.547-46.055 0-63.641zM156.37 198.348L302.383 52.332l47.09 47.09-146.016 146.016zm-9.406 18.875l37.62 37.625-52.038 14.418zM374.223 74.676L363.617 85.28l-47.094-47.094 10.61-10.605c9.762-9.762 25.59-9.762 35.351 0l11.739 11.734c9.746 9.774 9.746 25.59 0 35.36zm0 0"/></symbol><symbol viewBox="0 0 512 512" id="projects" xmlns="http://www.w3.org/2000/svg"><path d="M338.6 136.1c-23.6-22.7-54.6-34.4-87.4-33.2-62.9 2.5-114.2 55.7-114.4 118.7-.1 27.9 9.7 55.1 27.6 76.5 25.8 31 40 70.1 40 110.2 0 0-2.7 18.4 10.4 18.4h82.4c13.4 0 10.4-18.4 10.4-18.4 0-39.2 14.4-78 41.7-112.2 16.9-21.3 25.9-46.9 25.9-74.1 0-32.7-13-63.3-36.6-85.9zm-5.6 147c-29.7 37.2-45.6 79.6-46.2 122.8h-61.6c-.6-44.1-16.4-87-44.8-121.1-14.7-17.7-22.8-40.1-22.7-63.1.2-52 42.5-95.9 94.4-98 27.1-1 52.7 8.7 72.1 27.4 19.5 18.7 30.2 43.9 30.2 70.9-.1 22.5-7.4 43.6-21.4 61.1zm60.2-215.3c-4.1-4.1-10.7-4.1-14.7 0l-25.4 25.4c-4.1 4.1-4.1 10.7 0 14.7s10.7 4.1 14.7 0l25.4-25.4c4.1-4 4.1-10.6 0-14.7zm-95.6 373.1h-83.2c-5.8 0-10.4 4.7-10.4 10.4 0 5.8 4.7 10.4 10.4 10.4h83.2c5.8 0 10.4-4.7 10.4-10.4s-4.7-10.4-10.4-10.4zm-15.7 39.2h-51.7c-5.8 0-10.4 4.7-10.4 10.4 0 5.8 4.7 10.4 10.4 10.4h51.7c5.8 0 10.4-4.7 10.4-10.4s-4.7-10.4-10.4-10.4zM256 67.7c5.8 0 10.4-4.7 10.4-10.4V21.4c0-5.8-4.7-10.4-10.4-10.4s-10.4 4.7-10.4 10.4v35.9c0 5.8 4.6 10.4 10.4 10.4zM158.9 108c4.1-4.1 4.1-10.7 0-14.7l-25.4-25.4c-4.1-4.1-10.7-4.1-14.7 0s-4.1 10.7 0 14.7l25.4 25.4c4.1 4 10.7 4 14.7 0zm280.7 86.6h-35.9c-5.8 0-10.4 4.7-10.4 10.4s4.7 10.4 10.4 10.4h35.9c5.8 0 10.4-4.7 10.4-10.4s-4.7-10.4-10.4-10.4zm-331.3 0H72.4c-5.8 0-10.4 4.7-10.4 10.4s4.7 10.4 10.4 10.4h35.9c5.8 0 10.4-4.7 10.4-10.4s-4.6-10.4-10.4-10.4z"/></symbol><symbol viewBox="1 1 512 512" id="remove" xmlns="http://www.w3.org/2000/svg"><path d="M256 0C114.613 0 0 114.613 0 256s114.613 256 256 256 256-114.613 256-256C511.832 114.684 397.316.168 256 0zm0 480C132.29 480 32 379.71 32 256S132.29 32 256 32s224 100.29 224 224c-.133 123.656-100.344 223.867-224 224zm0 0"/><path d="M380.45 131.55c-6.25-6.245-16.38-6.245-22.626 0L256 233.376 154.176 131.551c-6.14-6.356-16.27-6.531-22.625-.39-6.356 6.136-6.531 16.265-.39 22.62.128.133.257.266.39.395L233.375 256 131.551 357.824c-6.356 6.137-6.531 16.266-.39 22.625 6.136 6.356 16.265 6.531 22.62.39.133-.128.266-.257.395-.39L256 278.625l101.824 101.824c6.356 6.137 16.485 5.961 22.621-.394 5.989-6.2 5.989-16.032 0-22.23L278.625 256l101.824-101.824c6.246-6.246 6.246-16.375 0-22.625zm0 0"/></symbol><symbol viewBox="0 0 485.213 485.213" id="search" xmlns="http://www.w3.org/2000/svg"><path d="M471.882 407.567L360.567 296.243a214.267 214.267 0 0 1-64.331 64.321L407.56 471.888c17.772 17.768 46.587 17.768 64.321 0 17.773-17.739 17.773-46.554.001-64.321zM363.909 181.955C363.909 81.473 282.44 0 181.956 0 81.474 0 .001 81.473.001 181.955s81.473 181.951 181.955 181.951c100.484 0 181.953-81.469 181.953-181.951zM181.956 318.416c-75.252 0-136.465-61.208-136.465-136.46 0-75.252 61.213-136.465 136.465-136.465 75.25 0 136.468 61.213 136.468 136.465 0 75.252-61.218 136.46-136.468 136.46z"/><path d="M75.817 181.955h30.322c0-41.803 34.014-75.814 75.816-75.814V75.816c-58.517 0-106.138 47.621-106.138 106.139z"/></symbol><symbol viewBox="0 0 512 512" id="user-add" xmlns="http://www.w3.org/2000/svg"><path d="M367.57 256.909a260.207 260.207 0 0 0-30.093-12.081C370.56 219.996 392 180.455 392 136 392 61.01 330.991 0 256 0S120 61.01 120 136c0 44.504 21.488 84.084 54.633 108.911-30.368 9.998-58.863 25.555-83.803 46.069-45.732 37.617-77.529 90.086-89.532 147.743-3.762 18.066.745 36.622 12.363 50.908C25.222 503.847 42.365 512 60.693 512H307c11.046 0 20-8.954 20-20s-8.954-20-20-20H60.693c-8.538 0-13.689-4.766-15.999-7.606-3.989-4.905-5.533-11.29-4.236-17.519 20.755-99.695 108.691-172.521 210.24-174.977a137.229 137.229 0 0 0 10.656-.002c31.12.73 61.05 7.832 89.044 21.14 9.977 4.74 21.907.499 26.649-9.478 4.742-9.976.5-21.907-9.477-26.649zm-106.692-25.032a260.16 260.16 0 0 0-9.718.002C200.465 229.35 160 187.312 160 136c0-52.935 43.065-96 96-96s96 43.065 96 96c0 51.299-40.445 93.329-91.122 95.877z"/><path d="M492 397h-55v-55c0-11.046-8.954-20-20-20s-20 8.954-20 20v55h-55c-11.046 0-20 8.954-20 20s8.954 20 20 20h55v55c0 11.046 8.954 20 20 20s20-8.954 20-20v-55h55c11.046 0 20-8.954 20-20s-8.954-20-20-20z"/></symbol><symbol viewBox="0 0 512 512" id="user-block" xmlns="http://www.w3.org/2000/svg"><path d="M404 148C404 66.395 337.605 0 256 0S108 66.395 108 148c0 50.547 25.48 95.25 64.262 121.965-36.211 12.492-69.399 33.133-97.282 61.015C26.63 379.332 0 443.621 0 512h40c0-119.102 96.898-216 216-216 81.605 0 148-66.395 148-148zM256 256c-59.55 0-108-48.45-108-108S196.45 40 256 40s108 48.45 108 108-48.45 108-108 108zm211.984 96v-21.016c0-32.523-26.918-58.984-60-58.984-33.086 0-60 26.46-60 58.984V352H304v160h208V352zm-80-21.016c0-10.468 8.97-18.984 20-18.984 11.028 0 20 8.52 20 18.984V352h-40zM472 472H344v-80h128zm0 0"/></symbol><symbol viewBox="0 0 512 512" id="user-delete" xmlns="http://www.w3.org/2000/svg"><path d="M512 338.954l-28.268-28.268-71.96 71.96-71.96-71.96-28.269 28.268 71.96 71.96-71.96 71.96 28.269 28.268 71.96-71.96 71.96 71.96L512 482.874l-71.96-71.96zM255.858.142C174.296.142 107.94 66.498 107.94 148.06c0 50.52 25.465 95.198 64.226 121.894-36.19 12.488-69.36 33.118-97.227 60.984C26.614 379.265 0 443.516 0 511.858h39.978c0-119.037 96.843-215.88 215.88-215.88 81.562 0 147.918-66.355 147.918-147.918C403.776 66.498 337.42.142 255.858.142zm0 255.858c-59.518 0-107.94-48.421-107.94-107.94S196.34 40.12 255.858 40.12s107.94 48.421 107.94 107.94S315.376 256 255.858 256z"/></symbol><symbol viewBox="0 0 478.703 478.703" id="user-settings" xmlns="http://www.w3.org/2000/svg"><path d="M454.2 189.101l-33.6-5.7c-3.5-11.3-8-22.2-13.5-32.6l19.8-27.7c8.4-11.8 7.1-27.9-3.2-38.1l-29.8-29.8c-5.6-5.6-13-8.7-20.9-8.7-6.2 0-12.1 1.9-17.1 5.5l-27.8 19.8c-10.8-5.7-22.1-10.4-33.8-13.9l-5.6-33.2a29.54 29.54 0 0 0-29.2-24.7h-42.1c-14.5 0-26.8 10.4-29.2 24.7l-5.8 34c-11.2 3.5-22.1 8.1-32.5 13.7l-27.5-19.8c-5-3.6-11-5.5-17.2-5.5-7.9 0-15.4 3.1-20.9 8.7l-29.9 29.8c-10.2 10.2-11.6 26.3-3.2 38.1l20 28.1c-5.5 10.5-9.9 21.4-13.3 32.7l-33.2 5.6a29.54 29.54 0 0 0-24.7 29.2v42.1c0 14.5 10.4 26.8 24.7 29.2l34 5.8c3.5 11.2 8.1 22.1 13.7 32.5l-19.7 27.4c-8.4 11.8-7.1 27.9 3.2 38.1l29.8 29.8c5.6 5.6 13 8.7 20.9 8.7 6.2 0 12.1-1.9 17.1-5.5l28.1-20c10.1 5.3 20.7 9.6 31.6 13l5.6 33.6a29.54 29.54 0 0 0 29.2 24.7h42.2c14.5 0 26.8-10.4 29.2-24.7l5.7-33.6c11.3-3.5 22.2-8 32.6-13.5l27.7 19.8c5 3.6 11 5.5 17.2 5.5 7.9 0 15.3-3.1 20.9-8.7l29.8-29.8c10.2-10.2 11.6-26.3 3.2-38.1l-19.8-27.8c5.5-10.5 10.1-21.4 13.5-32.6l33.6-5.6a29.54 29.54 0 0 0 24.7-29.2v-42.1c.2-14.5-10.2-26.8-24.5-29.2zm-2.3 71.3c0 1.3-.9 2.4-2.2 2.6l-42 7c-5.3.9-9.5 4.8-10.8 9.9-3.8 14.7-9.6 28.8-17.4 41.9-2.7 4.6-2.5 10.3.6 14.7l24.7 34.8c.7 1 .6 2.5-.3 3.4l-29.8 29.8c-.7.7-1.4.8-1.9.8-.6 0-1.1-.2-1.5-.5l-34.7-24.7c-4.3-3.1-10.1-3.3-14.7-.6-13.1 7.8-27.2 13.6-41.9 17.4-5.2 1.3-9.1 5.6-9.9 10.8l-7.1 42c-.2 1.3-1.3 2.2-2.6 2.2h-42.1c-1.3 0-2.4-.9-2.6-2.2l-7-42c-.9-5.3-4.8-9.5-9.9-10.8-14.3-3.7-28.1-9.4-41-16.8-2.1-1.2-4.5-1.8-6.8-1.8-2.7 0-5.5.8-7.8 2.5l-35 24.9c-.5.3-1 .5-1.5.5-.4 0-1.2-.1-1.9-.8l-29.8-29.8c-.9-.9-1-2.3-.3-3.4l24.6-34.5c3.1-4.4 3.3-10.2.6-14.8-7.8-13-13.8-27.1-17.6-41.8-1.4-5.1-5.6-9-10.8-9.9l-42.3-7.2c-1.3-.2-2.2-1.3-2.2-2.6v-42.1c0-1.3.9-2.4 2.2-2.6l41.7-7c5.3-.9 9.6-4.8 10.9-10 3.7-14.7 9.4-28.9 17.1-42 2.7-4.6 2.4-10.3-.7-14.6l-24.9-35c-.7-1-.6-2.5.3-3.4l29.8-29.8c.7-.7 1.4-.8 1.9-.8.6 0 1.1.2 1.5.5l34.5 24.6c4.4 3.1 10.2 3.3 14.8.6 13-7.8 27.1-13.8 41.8-17.6 5.1-1.4 9-5.6 9.9-10.8l7.2-42.3c.2-1.3 1.3-2.2 2.6-2.2h42.1c1.3 0 2.4.9 2.6 2.2l7 41.7c.9 5.3 4.8 9.6 10 10.9 15.1 3.8 29.5 9.7 42.9 17.6 4.6 2.7 10.3 2.5 14.7-.6l34.5-24.8c.5-.3 1-.5 1.5-.5.4 0 1.2.1 1.9.8l29.8 29.8c.9.9 1 2.3.3 3.4l-24.7 34.7c-3.1 4.3-3.3 10.1-.6 14.7 7.8 13.1 13.6 27.2 17.4 41.9 1.3 5.2 5.6 9.1 10.8 9.9l42 7.1c1.3.2 2.2 1.3 2.2 2.6v42.1h-.1z"/><path d="M239.4 136.001c-57 0-103.3 46.3-103.3 103.3s46.3 103.3 103.3 103.3 103.3-46.3 103.3-103.3-46.3-103.3-103.3-103.3zm0 179.6c-42.1 0-76.3-34.2-76.3-76.3s34.2-76.3 76.3-76.3 76.3 34.2 76.3 76.3-34.2 76.3-76.3 76.3z"/></symbol><symbol viewBox="0 0 512 512" id="users" xmlns="http://www.w3.org/2000/svg"><path d="M437.02 330.98c-27.883-27.882-61.071-48.523-97.281-61.018C378.521 243.251 404 198.548 404 148 404 66.393 337.607 0 256 0S108 66.393 108 148c0 50.548 25.479 95.251 64.262 121.962-36.21 12.495-69.398 33.136-97.281 61.018C26.629 379.333 0 443.62 0 512h40c0-119.103 96.897-216 216-216s216 96.897 216 216h40c0-68.38-26.629-132.667-74.98-181.02zM256 256c-59.551 0-108-48.448-108-108S196.449 40 256 40s108 48.448 108 108-48.449 108-108 108z"/></symbol><symbol viewBox="0 0 47.971 47.971" id="close" xmlns="http://www.w3.org/2000/svg"><path d="M28.228,23.986L47.092,5.122c1.172-1.171,1.172-3.071,0-4.242c-1.172-1.172-3.07-1.172-4.242,0L23.986,19.744L5.121,0.88   c-1.172-1.172-3.07-1.172-4.242,0c-1.172,1.171-1.172,3.071,0,4.242l18.865,18.864L0.879,42.85c-1.172,1.171-1.172,3.071,0,4.242   C1.465,47.677,2.233,47.97,3,47.97s1.535-0.293,2.121-0.879l18.865-18.864L42.85,47.091c0.586,0.586,1.354,0.879,2.121,0.879   s1.535-0.293,2.121-0.879c1.172-1.171,1.172-3.071,0-4.242L28.228,23.986z"/></symbol></svg>